<svg width="19" height="19" viewBox="0 0 19 19" fill="none" xmlns="http://www.w3.org/2000/svg">
<path fill-rule="evenodd" clip-rule="evenodd" d="M18.1333 9.0541C18.1333 9.66726 18.0709 10.2796 17.9483 10.8764C17.8287 11.4591 17.6517 12.0312 17.4197 12.578C17.193 13.1152 16.9119 13.6329 16.5834 14.1156C16.2598 14.5953 15.887 15.0454 15.4774 15.4556C15.067 15.8641 14.6154 16.2359 14.1359 16.5609C13.6516 16.8871 13.1332 17.1678 12.5957 17.3955C12.0481 17.6263 11.4747 17.8031 10.8925 17.9225C10.2948 18.0454 9.68031 18.1082 9.06626 18.1082C8.45175 18.1082 7.83724 18.0454 7.24044 17.9225C6.65738 17.8031 6.08404 17.6263 5.53681 17.3955C4.99935 17.1678 4.48045 16.8871 3.99611 16.5609C3.51663 16.2359 3.06505 15.8641 2.65552 15.4556C2.24556 15.0454 1.87276 14.5953 1.54869 14.1156C1.22195 13.6329 0.940357 13.1152 0.712809 12.578C0.480789 12.0312 0.303279 11.4591 0.183295 10.8764C0.0619973 10.2796 0 9.66726 0 9.0541C0 8.44048 0.0619618 7.82686 0.18333 7.23131C0.303315 6.64862 0.480825 6.07568 0.712844 5.52971C0.940393 4.99214 1.22199 4.47402 1.54873 3.99123C1.8728 3.51113 2.2456 3.06194 2.65556 2.65123C3.06509 2.24271 3.51667 1.87183 3.99615 1.54734C4.48048 1.21973 4.99939 0.939036 5.53685 0.710895C6.08407 0.479635 6.65738 0.302381 7.24048 0.183916C7.83728 0.0619078 8.45179 0 9.06629 0C9.68034 0 10.2948 0.0619078 10.8925 0.183916C11.4747 0.302416 12.0481 0.47967 12.5957 0.710895C13.1332 0.939 13.6516 1.21973 14.136 1.54734C14.6155 1.87183 15.0671 2.24271 15.4775 2.65123C15.887 3.06194 16.2598 3.51113 16.5834 3.99123C16.9119 4.47402 17.193 4.99217 17.4197 5.52971C17.6517 6.07568 17.8287 6.64862 17.9483 7.23131C18.0709 7.82686 18.1333 8.44048 18.1333 9.0541ZM5.76256 2.06059C3.60334 3.07876 1.9918 5.06551 1.48929 7.4599C1.69342 7.46167 4.92004 7.50235 8.63764 6.51601C7.29751 4.13842 5.86572 2.19812 5.76256 2.06059ZM9.27915 7.70661C5.29238 8.89845 1.46672 8.81269 1.32948 8.80742C1.32725 8.89051 1.32327 8.97095 1.32327 9.05409C1.32327 11.0404 2.0737 12.8512 3.30715 14.2204C3.30449 14.2164 5.42343 10.4626 9.60191 9.11334C9.70284 9.07975 9.80558 9.04966 9.90739 9.0205C9.71306 8.58108 9.50095 8.14075 9.27915 7.70661ZM14.1798 3.25116C12.8166 2.05085 11.0267 1.32277 9.06623 1.32277C8.4371 1.32277 7.82657 1.39882 7.24173 1.5394C7.35771 1.69503 8.8121 3.62165 10.1363 6.0496C13.0579 4.95588 14.1607 3.27944 14.1798 3.25116ZM10.4352 10.3017C10.4179 10.3074 10.4007 10.3123 10.3838 10.3185C5.81537 11.9088 4.32348 15.1138 4.30734 15.1488C5.62183 16.1696 7.27056 16.7854 9.06628 16.7854C10.1385 16.7854 11.1599 16.5674 12.0892 16.1727C11.9745 15.4972 11.5247 13.1293 10.4352 10.3017ZM13.393 15.4662C15.1316 14.2947 16.3664 12.4344 16.7108 10.2795C16.5515 10.2283 14.3852 9.54344 11.886 9.94355C12.9016 12.7305 13.3142 15.0003 13.393 15.4662ZM10.7323 7.20171C10.912 7.57043 11.086 7.9457 11.2467 8.32285C11.3038 8.45815 11.3596 8.59079 11.4141 8.72339C14.074 8.38916 16.6945 8.9515 16.8066 8.97446C16.7888 7.14157 16.1323 5.45939 15.0458 4.14243C15.0312 4.16316 13.7893 5.95498 10.7323 7.20171Z" fill="white"/>
</svg>
