<svg width="19" height="19" viewBox="0 0 19 19" fill="none" xmlns="http://www.w3.org/2000/svg">
<path fill-rule="evenodd" clip-rule="evenodd" d="M9.06752 0C6.60513 0 6.29611 0.0107668 5.32899 0.0547784C4.36376 0.0989788 3.70491 0.251792 3.12841 0.476005C2.53208 0.707585 2.02623 1.01737 1.52227 1.52152C1.01793 2.02548 0.708152 2.53133 0.475816 3.12747C0.251036 3.70415 0.0980344 4.36319 0.0545895 5.32804C0.0113335 6.29517 0 6.60438 0 9.06676C0 11.5291 0.0109557 11.8372 0.0547784 12.8043C0.0991677 13.7696 0.25198 14.4284 0.476005 15.0049C0.707774 15.6013 1.01756 16.1071 1.5217 16.6111C2.02548 17.1154 2.53133 17.4259 3.12728 17.6575C3.70415 17.8817 4.36319 18.0345 5.32823 18.0787C6.29535 18.1228 6.60419 18.1335 9.06638 18.1335C11.529 18.1335 11.837 18.1228 12.8042 18.0787C13.7694 18.0345 14.429 17.8817 15.0059 17.6575C15.602 17.4259 16.1071 17.1154 16.6109 16.6111C17.1152 16.1071 17.425 15.6013 17.6573 15.0051C17.8802 14.4284 18.0332 13.7694 18.0786 12.8045C18.122 11.8374 18.1333 11.5291 18.1333 9.06676C18.1333 6.60438 18.122 6.29535 18.0786 5.32823C18.0332 4.363 17.8802 3.70415 17.6573 3.12766C17.425 2.53133 17.1152 2.02548 16.6109 1.52152C16.1065 1.01718 15.6022 0.707396 15.0053 0.476005C14.4273 0.251792 13.7681 0.0989788 12.8028 0.0547784C11.8357 0.0107668 11.5278 0 9.06468 0H9.06752ZM8.25411 1.63388C8.49552 1.6335 8.76487 1.63388 9.06748 1.63388C11.4883 1.63388 11.7752 1.64257 12.7312 1.68601C13.6152 1.72644 14.095 1.87415 14.4146 1.99825C14.8377 2.16259 15.1394 2.35903 15.4565 2.67637C15.7739 2.99371 15.9703 3.29593 16.135 3.71905C16.2591 4.03827 16.407 4.51806 16.4473 5.40206C16.4907 6.35785 16.5001 6.64497 16.5001 9.06466C16.5001 11.4844 16.4907 11.7715 16.4473 12.7273C16.4068 13.6113 16.2591 14.091 16.135 14.4103C15.9707 14.8334 15.7739 15.1347 15.4565 15.4518C15.1392 15.7692 14.8379 15.9656 14.4146 16.1299C14.0954 16.2546 13.6152 16.4019 12.7312 16.4424C11.7754 16.4858 11.4883 16.4952 9.06748 16.4952C6.64646 16.4952 6.35954 16.4858 5.40375 16.4424C4.51974 16.4016 4.03996 16.2538 3.72017 16.1297C3.29705 15.9654 2.99483 15.769 2.67749 15.4516C2.36015 15.1343 2.16371 14.8328 1.99899 14.4095C1.87489 14.0903 1.72699 13.6105 1.68676 12.7265C1.64331 11.7707 1.63462 11.4836 1.63462 9.06239C1.63462 6.64119 1.64331 6.35559 1.68676 5.3998C1.72718 4.51579 1.87489 4.03601 1.99899 3.7164C2.16333 3.29329 2.36015 2.99106 2.67749 2.67372C2.99483 2.35639 3.29705 2.15994 3.72017 1.99523C4.03977 1.87056 4.51974 1.72323 5.40375 1.68261C6.24016 1.64484 6.5643 1.6335 8.25411 1.63161V1.63388ZM13.9072 3.13934C13.3066 3.13934 12.8192 3.62612 12.8192 4.22698C12.8192 4.82765 13.3066 5.31499 13.9072 5.31499C14.5079 5.31499 14.9953 4.82765 14.9953 4.22698C14.9953 3.62631 14.5079 3.13934 13.9072 3.13934ZM9.06753 4.41058C6.49616 4.41058 4.41137 6.49537 4.41137 9.06674C4.41137 11.6381 6.49616 13.722 9.06753 13.722C11.6389 13.722 13.7229 11.6381 13.7229 9.06674C13.7229 6.49537 11.6389 4.41058 9.06753 4.41058ZM9.0675 6.04448C10.7365 6.04448 12.0898 7.39751 12.0898 9.06674C12.0898 10.7358 10.7365 12.089 9.0675 12.089C7.39827 12.089 6.04524 10.7358 6.04524 9.06674C6.04524 7.39751 7.39827 6.04448 9.0675 6.04448Z" fill="white"/>
</svg>
