<svg width="17" height="14" viewBox="0 0 17 14" fill="none" xmlns="http://www.w3.org/2000/svg">
<path fill-rule="evenodd" clip-rule="evenodd" d="M7.99085 3.61781L8.02653 4.20605L7.43197 4.13402C5.26778 3.85791 3.37709 2.92153 1.77178 1.34889L0.986965 0.568577L0.784816 1.14481C0.356735 2.42933 0.630231 3.78588 1.52207 4.69825C1.99771 5.20246 1.89069 5.27448 1.0702 4.97436C0.784816 4.87832 0.535102 4.80629 0.511319 4.84231C0.428081 4.92634 0.713469 6.01879 0.939401 6.45096C1.24857 7.0512 1.8788 7.63944 2.56849 7.98758L3.15115 8.26369L2.46147 8.2757C1.79556 8.2757 1.77178 8.28771 1.84313 8.53981C2.08095 9.32012 3.02035 10.1485 4.06677 10.5086L4.80402 10.7607L4.1619 11.1449C3.21061 11.6971 2.09284 12.0092 0.975074 12.0332C0.439973 12.0452 0 12.0932 0 12.1293C0 12.2493 1.45072 12.9216 2.29499 13.1857C4.82781 13.966 7.83627 13.6299 10.0956 12.2973C11.7009 11.3489 13.3062 9.46418 14.0553 7.63944C14.4596 6.66705 14.8639 4.89033 14.8639 4.03798C14.8639 3.48576 14.8996 3.41373 15.5655 2.75346C15.9579 2.36931 16.3265 1.94914 16.3979 1.82909C16.5168 1.601 16.5049 1.601 15.8985 1.80508C14.8877 2.16522 14.745 2.1172 15.2445 1.57699C15.6131 1.19283 16.0531 0.496548 16.0531 0.292466C16.0531 0.256451 15.8747 0.316475 15.6725 0.424519C15.4585 0.544568 14.9828 0.724641 14.6261 0.832684L13.984 1.03677L13.4013 0.640607C13.0803 0.424519 12.6284 0.184422 12.3906 0.112393C11.7841 -0.0556755 10.8566 -0.0316658 10.3096 0.160412C8.82323 0.700631 7.88383 2.09319 7.99085 3.61781Z" fill="white"/>
</svg>
