<svg width="19" height="14" viewBox="0 0 19 14" fill="none" xmlns="http://www.w3.org/2000/svg">
<path fill-rule="evenodd" clip-rule="evenodd" d="M16.1511 0.389108C16.9314 0.603212 17.5459 1.23407 17.7544 2.0352C18.1333 3.48715 18.1333 6.51667 18.1333 6.51667C18.1333 6.51667 18.1333 9.54608 17.7544 10.9981C17.5459 11.7993 16.9314 12.4301 16.1511 12.6443C14.7371 13.0333 9.06667 13.0333 9.06667 13.0333C9.06667 13.0333 3.39619 13.0333 1.9821 12.6443C1.20185 12.4301 0.587376 11.7993 0.378842 10.9981C0 9.54608 0 6.51667 0 6.51667C0 6.51667 0 3.48715 0.378842 2.0352C0.587376 1.23407 1.20185 0.603212 1.9821 0.389108C3.39619 0 9.06667 0 9.06667 0C9.06667 0 14.7371 0 16.1511 0.389108ZM7.36668 3.96661V9.63328L11.9 6.80005L7.36668 3.96661Z" fill="white"/>
</svg>
